<?xml version="1.0" encoding="utf-8"?>
<!-- Generator: Adobe Illustrator 19.2.1, SVG Export Plug-In . SVG Version: 6.00 Build 0)  -->
<svg version="1.1" id="Layer_1" xmlns="http://www.w3.org/2000/svg" xmlns:xlink="http://www.w3.org/1999/xlink" x="0px" y="0px"
	 viewBox="0 0 139.143 150.026" style="enable-background:new 0 0 139.143 150.026;" xml:space="preserve">
<style type="text/css">
	.st0{fill:#B3C471;}
	.st1{fill:#CAD681;}
	.st2{fill:#585948;}
	.st3{fill:#7D1F4D;}
	.st4{fill:#FFFFFF;}
	.st5{fill:#5CD7FF;}
	.st6{fill:#7BF0D3;}
	.st7{fill:#4579B3;}
	.st8{fill:#E75C54;}
	.st9{fill:#FFE75B;}
	.st10{fill:#C55049;}
	.st11{fill:#E3B347;}
	.st12{fill:#A54242;}
	.st13{fill:#F7CC46;}
	.st14{fill:#E5B72D;}
	.st15{fill:#644E35;}
	.st16{opacity:0.2;}
	.st17{fill:#E5A13F;}
	.st18{fill:#A0A1A4;}
	.st19{fill:#6A5C4F;}
	.st20{fill:#D8F0F3;}
	.st21{fill:#64574B;}
	.st22{fill:#B6D7E0;}
	.st23{fill:#564B40;}
	.st24{fill:#99BCC8;}
	.st25{fill:#49494B;}
	.st26{fill:#EAFFFF;}
	.st27{fill:#756557;}
	.st28{fill:#383A3B;}
	.st29{fill:#2EB67F;}
	.st30{fill:#6D6D70;}
	.st31{fill:#59595B;}
	.st32{fill:#51DEFF;}
	.st33{fill:#40E0D6;}
	.st34{fill:#8FD7FF;}
	.st35{fill:#40CFE9;}
	.st36{fill:#3ED1BC;}
	.st37{fill:#8EB9FF;}
	.st38{fill:#425DB4;}
	.st39{fill:#F2557C;}
	.st40{fill:#CE3A62;}
	.st41{fill:#E3396F;}
	.st42{fill:#F4B0C5;}
	.st43{fill:#E73B60;}
	.st44{fill:#C5284C;}
	.st45{fill:#D92756;}
	.st46{fill:#EAEBEB;}
	.st47{clip-path:url(#SVGID_2_);fill:#E5E5E5;}
	.st48{fill:#D3D3D3;}
	.st49{fill:#E5E5E5;}
	.st50{fill:#254DAA;}
	.st51{fill:#214599;}
	.st52{fill:#F7ACAF;}
	.st53{fill:#EB2E38;}
	.st54{fill:#FFD66F;}
	.st55{fill:#CFA353;}
	.st56{fill:#CFC3BE;}
	.st57{fill:#87685C;}
</style>
<g>
	<g>
		<g>
			<path class="st4" d="M22.303,81.038c3.12,7.35,10.39,12.5,18.85,12.5c0.23,0,0.45,0,0.68-0.01c0.22-0.01,0.44-0.02,0.67-0.04
				c0.22-0.01,0.44-0.03,0.66-0.05c3.34-0.32,6.45-1.45,9.13-3.2l8.29,1.18l-1.89-7.82c1.86-3.09,2.93-6.7,2.93-10.57
				c0-10.43-7.78-19.04-17.83-20.33c-0.55-0.08-1.11-0.13-1.68-0.15c-0.32-0.02-0.64-0.03-0.96-0.03c-0.42,0-0.82,0.01-1.23,0.03
				v-0.08c7.12-5.07,15.83-8.06,25.24-8.06c24.04,0,43.53,19.5,43.53,43.54c0,0.72-0.02,1.43-0.05,2.14l-0.1,0.04
				c-2.92-6.08-8.76-10.49-15.69-11.42c-0.13-0.02-0.27-0.04-0.41-0.05c-0.18-0.03-0.35-0.04-0.53-0.06
				c-0.14-0.01-0.29-0.02-0.43-0.03c-0.19-0.02-0.39-0.03-0.58-0.03c-0.25-0.02-0.5-0.02-0.75-0.02c-0.02,0-0.03,0-0.05,0
				c-0.21,0-0.42,0-0.63,0.01c-0.14,0-0.28,0.01-0.42,0.02c-0.09,0-0.17,0-0.26,0.01l-0.03,0.01c-0.24,0.01-0.48,0.03-0.71,0.06
				c-0.23,0.02-0.45,0.04-0.67,0.08c-0.22,0.02-0.43,0.05-0.65,0.1c-0.38,0.05-0.75,0.13-1.12,0.21c-0.27,0.06-0.54,0.13-0.81,0.2
				c-0.42,0.11-0.83,0.23-1.24,0.38c-0.02,0-0.04,0.01-0.07,0.02c-0.33,0.11-0.65,0.23-0.97,0.37c-0.13,0.04-0.26,0.09-0.38,0.15
				c-0.33,0.14-0.64,0.28-0.96,0.44c-0.33,0.16-0.67,0.33-0.99,0.51c-0.42,0.23-0.83,0.48-1.23,0.74l-8.29-1.19l1.88,7.82
				c-0.12,0.19-0.23,0.39-0.34,0.59c-0.11,0.18-0.21,0.37-0.3,0.56c-0.01,0.03-0.03,0.06-0.04,0.08c-0.09,0.15-0.17,0.3-0.24,0.46
				c0,0.01,0,0.01-0.01,0.02c-0.01,0.03-0.02,0.05-0.03,0.08c-0.15,0.33-0.3,0.66-0.44,1c-0.06,0.16-0.12,0.32-0.18,0.48
				c-0.03,0.08-0.06,0.15-0.09,0.23c-0.01,0-0.01,0-0.01,0.01c-0.1,0.27-0.19,0.55-0.27,0.83c-0.07,0.21-0.13,0.41-0.19,0.62
				c-0.05,0.18-0.1,0.36-0.15,0.55c-0.07,0.27-0.13,0.55-0.19,0.84c0,0,0,0,0,0.01c-0.07,0.32-0.13,0.65-0.18,0.99
				c-0.04,0.23-0.08,0.47-0.1,0.71c-0.06,0.48-0.11,0.96-0.13,1.44c-0.02,0.31-0.03,0.61-0.03,0.92c0,0.05,0,0.1,0,0.15
				c0,0.33,0.01,0.65,0.03,0.97c0.01,0.32,0.03,0.64,0.07,0.96c0.03,0.39,0.07,0.77,0.14,1.15c0.32,2.2,1,4.28,1.97,6.18
				c0.01,0.04,0.03,0.07,0.06,0.11c0.13,0.28,0.28,0.56,0.45,0.83c3.09,5.41,8.58,9.27,15.02,10.12c0.06,0.02,0.12,0.03,0.18,0.02
				c0.27,0.05,0.54,0.07,0.81,0.09l0.43,0.03c0.43,0.04,0.87,0.05,1.31,0.05c0.04,0,0.07,0,0.11,0c0.27,0,0.55-0.01,0.82-0.02
				c0.14,0,0.28-0.01,0.42-0.02l2-0.23c0.33-0.05,0.66-0.11,0.98-0.19c0.53-0.1,1.05-0.23,1.56-0.39
				c-7.89,7.9-18.79,12.79-30.83,12.79c-24.04,0-43.54-19.49-43.54-43.53c0-2.33,0.19-4.62,0.54-6.85L22.303,81.038z"/>
		</g>
		<g>
			<path class="st4" d="M41.173,70.448c1.38,0,2.49,1.11,2.49,2.49c0,1.37-1.11,2.49-2.49,2.49c-1.37,0-2.49-1.12-2.49-2.49
				C38.683,71.558,39.803,70.448,41.173,70.448z"/>
		</g>
		<g>
			<path class="st4" d="M32.123,70.448c1.38,0,2.49,1.11,2.49,2.49c0,1.37-1.11,2.49-2.49,2.49c-1.37,0-2.49-1.12-2.49-2.49
				C29.633,71.558,30.753,70.448,32.123,70.448z"/>
		</g>
		<g>
			<path class="st4" d="M50.173,70.448c1.38,0,2.49,1.11,2.49,2.49c0,1.37-1.11,2.49-2.49,2.49c-1.37,0-2.49-1.12-2.49-2.49
				C47.683,71.558,48.803,70.448,50.173,70.448z"/>
		</g>
		<g>
			<path class="st4" d="M99.203,96.448c1.37,0,2.49,1.11,2.49,2.49c0,1.37-1.12,2.49-2.49,2.49c-1.38,0-2.49-1.12-2.49-2.49
				C96.713,97.558,97.823,96.448,99.203,96.448z"/>
		</g>
		<g>
			<path class="st4" d="M90.203,96.448c1.37,0,2.49,1.11,2.49,2.49c0,1.37-1.12,2.49-2.49,2.49c-1.38,0-2.49-1.12-2.49-2.49
				C87.713,97.558,88.823,96.448,90.203,96.448z"/>
		</g>
		<g>
			<path class="st4" d="M81.203,96.448c1.37,0,2.49,1.11,2.49,2.49c0,1.37-1.12,2.49-2.49,2.49c-1.38,0-2.49-1.12-2.49-2.49
				C78.713,97.558,79.823,96.448,81.203,96.448z"/>
		</g>
		<g>
			<path class="st4" d="M95.393,118.848c-6.22-1.65-11.28-6.15-13.69-12.03l-0.03-0.08c-0.72-1.73-1.2-3.57-1.42-5.5
				c0.29,0.12,0.61,0.19,0.95,0.19c1.37,0,2.49-1.12,2.49-2.49c0-1.38-1.12-2.49-2.49-2.49c-0.34,0-0.66,0.07-0.95,0.19
				c0.94-8.44,7.04-15.33,15.07-17.43c-0.81-0.21-1.63-0.38-2.47-0.5c6.93,0.93,12.77,5.34,15.69,11.42
				c0.18,0.36,0.35,0.73,0.5,1.11l0.03,0.08c1,2.41,1.55,5.05,1.55,7.81c0,9.27-6.18,17.08-14.63,19.56
				c-0.51,0.16-1.03,0.29-1.56,0.39C94.753,119.008,95.073,118.928,95.393,118.848z M101.693,98.938c0-1.38-1.12-2.49-2.49-2.49
				c-1.38,0-2.49,1.11-2.49,2.49c0,1.37,1.11,2.49,2.49,2.49C100.573,101.428,101.693,100.308,101.693,98.938z M92.693,98.938
				c0-1.38-1.12-2.49-2.49-2.49c-1.38,0-2.49,1.11-2.49,2.49c0,1.37,1.11,2.49,2.49,2.49
				C91.573,101.428,92.693,100.308,92.693,98.938z"/>
		</g>
		<g>
			<path class="st4" d="M61.623,73.028c0,3.87-1.07,7.48-2.93,10.57l1.89,7.82l-8.29-1.18c-2.68,1.75-5.79,2.88-9.13,3.2
				c1.11-0.11,2.19-0.31,3.23-0.59c-6.22-1.65-11.28-6.15-13.69-12.03l-0.03-0.08c-0.72-1.73-1.2-3.57-1.41-5.49
				c0.28,0.12,0.59,0.18,0.91,0.18c1.38,0,2.49-1.12,2.49-2.49c0-1.38-1.11-2.49-2.49-2.49c-0.33,0-0.64,0.06-0.92,0.18
				c0.94-8.44,7.04-15.32,15.07-17.42c-0.82-0.22-1.67-0.39-2.53-0.51C53.843,53.988,61.623,62.598,61.623,73.028z M52.663,72.938
				c0-1.38-1.11-2.49-2.49-2.49c-1.37,0-2.49,1.11-2.49,2.49c0,1.37,1.12,2.49,2.49,2.49C51.553,75.428,52.663,74.308,52.663,72.938
				z M43.663,72.938c0-1.38-1.11-2.49-2.49-2.49c-1.37,0-2.49,1.11-2.49,2.49c0,1.37,1.12,2.49,2.49,2.49
				C42.553,75.428,43.663,74.308,43.663,72.938z"/>
		</g>
		<g>
			<circle class="st52" cx="121.123" cy="57.988" r="1"/>
		</g>
		<g>
			<circle class="st52" cx="121.123" cy="101.988" r="1"/>
		</g>
		<g>
			<path class="st52" d="M93.453,119.268l-2,0.23l0.08-0.02C92.183,119.438,92.823,119.368,93.453,119.268z"/>
		</g>
		<g>
			<path class="st52" d="M92.443,78.658c-0.17-0.03-0.35-0.05-0.53-0.06C92.093,78.618,92.263,78.628,92.443,78.658z"/>
		</g>
		<g>
			<path class="st52" d="M71.843,108.288c-0.96-1.91-1.64-3.99-1.97-6.18c-0.05-0.37-0.09-0.74-0.13-1.11
				c-0.01-0.01-0.01-0.02-0.01-0.04c-0.03-0.31-0.05-0.63-0.07-0.96c-0.02-0.32-0.03-0.64-0.03-0.97c0-0.05,0-0.1,0-0.15
				c0-0.06,0.01-0.13,0.01-0.2c0-0.24,0.01-0.48,0.02-0.72c0.03-0.49,0.07-0.97,0.13-1.44c0.03-0.24,0.07-0.47,0.1-0.71
				c0.05-0.33,0.11-0.66,0.18-0.99c0-0.01,0-0.01,0-0.01c0.06-0.28,0.12-0.56,0.19-0.84c0.05-0.19,0.1-0.37,0.15-0.55
				c0.06-0.21,0.12-0.42,0.19-0.62c0.11-0.36,0.24-0.72,0.37-1.07c0.05-0.16,0.12-0.32,0.18-0.48c0.14-0.34,0.29-0.67,0.44-1
				c0.09-0.18,0.18-0.37,0.28-0.56c0.01-0.02,0.03-0.05,0.04-0.08c0.1-0.19,0.2-0.38,0.3-0.56c0.11-0.2,0.22-0.4,0.34-0.59
				l-1.88-7.82l8.29,1.19c0.4-0.26,0.81-0.51,1.23-0.74c0.32-0.18,0.65-0.35,0.99-0.51c0.31-0.16,0.63-0.3,0.96-0.44
				c0.12-0.06,0.25-0.11,0.38-0.15c0.32-0.13,0.64-0.25,0.97-0.37c0.03-0.01,0.05-0.02,0.07-0.02c0.41-0.14,0.82-0.26,1.24-0.38
				c0.27-0.07,0.54-0.14,0.81-0.2c0.37-0.08,0.74-0.15,1.12-0.21c0.22-0.04,0.43-0.07,0.65-0.1s0.45-0.06,0.67-0.08
				c0.22-0.02,0.45-0.04,0.67-0.05l0.04-0.01c0.1-0.01,0.19-0.02,0.29-0.02c0.14-0.01,0.28-0.02,0.42-0.02
				c0.21-0.01,0.42-0.01,0.63-0.01c0.02,0,0.03,0,0.05,0c0.25,0,0.5,0.01,0.75,0.02c0.19,0,0.39,0.01,0.58,0.03
				c0.14,0.01,0.29,0.02,0.43,0.03c0.18,0.01,0.36,0.03,0.53,0.06c0.14,0.01,0.28,0.03,0.41,0.05c0.84,0.12,1.66,0.29,2.47,0.5
				c-8.03,2.1-14.13,8.99-15.07,17.43c-0.91,0.37-1.54,1.26-1.54,2.3c0,1.03,0.63,1.93,1.54,2.3c0.22,1.93,0.7,3.77,1.42,5.5
				l0.03,0.08c2.41,5.88,7.47,10.38,13.69,12.03c-0.32,0.08-0.64,0.16-0.96,0.23c-0.32,0.08-0.65,0.14-0.98,0.19
				c-0.63,0.1-1.27,0.17-1.92,0.21l-0.08,0.02c-0.14,0.01-0.28,0.02-0.42,0.02c-0.27,0.01-0.55,0.02-0.82,0.02
				c-0.04,0-0.07,0-0.11,0c-0.44,0-0.88-0.01-1.31-0.05c-0.15,0-0.29-0.01-0.43-0.03c-0.27-0.02-0.54-0.05-0.81-0.09
				c-0.06,0.01-0.12,0-0.18-0.02c-0.8-0.11-1.59-0.27-2.36-0.47c-0.6-0.16-1.2-0.34-1.78-0.55h-0.01c-0.07-0.03-0.14-0.06-0.22-0.08
				c-0.63-0.24-1.24-0.49-1.84-0.79c-0.53-0.25-1.04-0.54-1.54-0.84c-0.13-0.08-0.24-0.16-0.36-0.23c-0.36-0.22-0.71-0.46-1.05-0.71
				c-0.14-0.1-0.28-0.21-0.43-0.31c-2.2-1.65-4.05-3.75-5.43-6.14c-0.15-0.28-0.3-0.55-0.45-0.83
				C71.873,108.358,71.853,108.328,71.843,108.288z"/>
		</g>
		<g>
			<path class="st52" d="M90.903,78.538c-0.25-0.01-0.5-0.02-0.75-0.02C90.403,78.518,90.653,78.518,90.903,78.538z"/>
		</g>
		<g>
			<path class="st52" d="M89.053,78.548c-0.1,0-0.19,0.01-0.29,0.02l0.03-0.01C88.883,78.548,88.963,78.548,89.053,78.548z"/>
		</g>
		<g>
			<path class="st52" d="M88.793,119.488l-0.43-0.03C88.503,119.478,88.643,119.488,88.793,119.488z"/>
		</g>
		<g>
			<circle class="st52" cx="83.123" cy="37.988" r="1"/>
		</g>
		<g>
			<path class="st52" d="M72.213,89.048c-0.1,0.18-0.2,0.37-0.3,0.56C72.003,89.418,72.103,89.228,72.213,89.048z"/>
		</g>
		<g>
			<path class="st52" d="M71.873,89.688c-0.1,0.19-0.19,0.38-0.28,0.56c0.01-0.03,0.02-0.05,0.03-0.08
				c0.01-0.01,0.01-0.01,0.01-0.02C71.703,89.988,71.783,89.838,71.873,89.688z"/>
		</g>
		<g>
			<path class="st52" d="M70.883,91.958c0.03-0.08,0.06-0.15,0.09-0.23c-0.13,0.35-0.26,0.71-0.37,1.07
				c0.08-0.28,0.17-0.56,0.27-0.83C70.873,91.958,70.873,91.958,70.883,91.958z"/>
		</g>
		<g>
			<path class="st52" d="M70.603,92.798c-0.07,0.2-0.13,0.41-0.19,0.62C70.473,93.208,70.533,93.008,70.603,92.798z"/>
		</g>
		<g>
			<path class="st52" d="M43.793,52.698c0.86,0.12,1.71,0.29,2.53,0.51c-8.03,2.1-14.13,8.98-15.07,17.42
				c-0.92,0.36-1.57,1.26-1.57,2.31c0,1.05,0.66,1.95,1.58,2.31c0.21,1.92,0.69,3.76,1.41,5.49l0.03,0.08
				c2.41,5.88,7.47,10.38,13.69,12.03c-1.04,0.28-2.12,0.48-3.23,0.59c-0.22,0.02-0.44,0.04-0.66,0.05
				c-0.23,0.02-0.45,0.03-0.67,0.04c-0.23,0.01-0.45,0.01-0.68,0.01c-8.46,0-15.73-5.15-18.85-12.5c-0.03-0.07-0.06-0.15-0.09-0.22
				l-0.03-0.08c-1-2.41-1.55-5.04-1.55-7.81c0-10.82,8.43-19.68,19.09-20.35l0.07-0.02c0.04,0,0.09-0.01,0.13-0.01
				c0.41-0.02,0.81-0.03,1.23-0.03c0.32,0,0.64,0.01,0.96,0.03C42.683,52.568,43.243,52.618,43.793,52.698z"/>
		</g>
		<g>
			<path class="st52" d="M42.113,52.548c-0.32-0.02-0.64-0.03-0.96-0.03C41.473,52.518,41.793,52.528,42.113,52.548z"/>
		</g>
		<g>
			<circle class="st52" cx="38.123" cy="134.988" r="1"/>
		</g>
		<g>
			<circle class="st52" cx="23.123" cy="47.988" r="1"/>
		</g>
		<g>
			<circle class="st52" cx="1.123" cy="86.988" r="1"/>
		</g>
		<g>
			<path class="st52" d="M89.763,98.938c0-1.022,0.616-1.894,1.492-2.278c-0.307-0.134-0.645-0.212-1.002-0.212
				c-1.37,0-2.49,1.11-2.49,2.49c0,1.37,1.12,2.49,2.49,2.49c0.358,0,0.695-0.078,1.002-0.213
				C90.379,100.828,89.763,99.953,89.763,98.938z"/>
		</g>
		<g>
			<path class="st52" d="M80.713,98.938c0-1.022,0.616-1.894,1.492-2.278c-0.307-0.134-0.645-0.212-1.002-0.212
				c-1.37,0-2.49,1.11-2.49,2.49c0,1.37,1.12,2.49,2.49,2.49c0.358,0,0.695-0.078,1.002-0.213
				C81.329,100.828,80.713,99.953,80.713,98.938z"/>
		</g>
		<g>
			<path class="st52" d="M98.763,98.938c0-1.022,0.616-1.894,1.492-2.278c-0.307-0.134-0.645-0.212-1.002-0.212
				c-1.37,0-2.49,1.11-2.49,2.49c0,1.37,1.12,2.49,2.49,2.49c0.358,0,0.695-0.078,1.002-0.213
				C99.379,100.828,98.763,99.953,98.763,98.938z"/>
		</g>
		<g>
			<path class="st52" d="M40.683,72.938c0-1.022,0.616-1.894,1.492-2.278c-0.307-0.134-0.645-0.212-1.002-0.212
				c-1.37,0-2.49,1.11-2.49,2.49c0,1.37,1.12,2.49,2.49,2.49c0.358,0,0.695-0.078,1.002-0.213
				C41.299,74.828,40.683,73.953,40.683,72.938z"/>
		</g>
		<g>
			<path class="st52" d="M31.633,72.938c0-1.022,0.616-1.894,1.492-2.278c-0.307-0.134-0.645-0.212-1.002-0.212
				c-1.37,0-2.49,1.11-2.49,2.49c0,1.37,1.12,2.49,2.49,2.49c0.358,0,0.695-0.078,1.002-0.213
				C32.249,74.828,31.633,73.953,31.633,72.938z"/>
		</g>
		<g>
			<path class="st52" d="M49.683,72.938c0-1.022,0.616-1.894,1.492-2.278c-0.307-0.134-0.645-0.212-1.002-0.212
				c-1.37,0-2.49,1.11-2.49,2.49c0,1.37,1.12,2.49,2.49,2.49c0.358,0,0.695-0.078,1.002-0.213
				C50.299,74.828,49.683,73.953,49.683,72.938z"/>
		</g>
	</g>
	<g>
		<circle class="st53" cx="138.123" cy="111.988" r="1"/>
		<circle class="st53" cx="131.123" cy="87.988" r="1"/>
		<circle class="st53" cx="103.123" cy="30.988" r="1"/>
		<circle class="st53" cx="103.123" cy="49.988" r="1"/>
		<circle class="st53" cx="91.123" cy="131.988" r="1"/>
		<circle class="st53" cx="68.123" cy="27.988" r="1"/>
		<circle class="st53" cx="58.123" cy="144.988" r="1"/>
		<circle class="st53" cx="33.123" cy="47.988" r="1"/>
		<circle class="st53" cx="17.123" cy="106.988" r="1"/>
		<circle class="st53" cx="8.123" cy="124.988" r="1"/>
		<path class="st53" d="M4.003,57.988c0-0.55-0.45-1-1-1c-0.56,0-1,0.45-1,1c0,0.55,0.44,1,1,1
			C3.553,58.988,4.003,58.538,4.003,57.988z"/>
		<path class="st53" d="M12.133,51.008c-1.098,0-1.99,0.893-1.99,1.99c0,1.092,0.893,1.98,1.99,1.98c1.097,0,1.989-0.888,1.989-1.98
			C14.123,51.9,13.23,51.008,12.133,51.008z M12.133,53.978c-0.546,0-0.99-0.439-0.99-0.98c0-0.546,0.444-0.99,0.99-0.99
			s0.989,0.444,0.989,0.99C13.123,53.539,12.679,53.978,12.133,53.978z"/>
		<path class="st53" d="M32.133,34.978c1.097,0,1.989-0.888,1.989-1.98c0-1.098-0.893-1.99-1.989-1.99
			c-1.098,0-1.99,0.893-1.99,1.99C30.143,34.09,31.036,34.978,32.133,34.978z M32.133,32.008c0.546,0,0.989,0.444,0.989,0.99
			c0,0.541-0.443,0.98-0.989,0.98s-0.99-0.439-0.99-0.98C31.143,32.452,31.587,32.008,32.133,32.008z"/>
		<path class="st53" d="M12.133,71.008c-1.098,0-1.99,0.893-1.99,1.99c0,1.092,0.893,1.98,1.99,1.98c1.097,0,1.989-0.888,1.989-1.98
			C14.123,71.9,13.23,71.008,12.133,71.008z M12.133,73.978c-0.546,0-0.99-0.439-0.99-0.98c0-0.546,0.444-0.99,0.99-0.99
			s0.989,0.444,0.989,0.99C13.123,73.539,12.679,73.978,12.133,73.978z"/>
		<path class="st53" d="M5.133,101.008c-1.098,0-1.99,0.893-1.99,1.99c0,1.092,0.893,1.979,1.99,1.979
			c1.097,0,1.989-0.888,1.989-1.979C7.123,101.9,6.23,101.008,5.133,101.008z M5.133,103.978c-0.546,0-0.99-0.439-0.99-0.979
			c0-0.546,0.444-0.99,0.99-0.99s0.989,0.444,0.989,0.99C6.123,103.538,5.679,103.978,5.133,103.978z"/>
		<path class="st53" d="M121.133,81.008c-1.098,0-1.99,0.893-1.99,1.99c0,1.092,0.893,1.979,1.99,1.979
			c1.097,0,1.989-0.888,1.989-1.979C123.123,81.9,122.23,81.008,121.133,81.008z M121.133,83.978c-0.546,0-0.99-0.439-0.99-0.979
			c0-0.546,0.444-0.99,0.99-0.99s0.989,0.444,0.989,0.99C122.123,83.538,121.679,83.978,121.133,83.978z"/>
		<path class="st53" d="M101.133,128.008c-1.098,0-1.99,0.893-1.99,1.99c0,1.092,0.893,1.979,1.99,1.979
			c1.097,0,1.989-0.888,1.989-1.979C103.123,128.9,102.23,128.008,101.133,128.008z M101.133,130.978
			c-0.546,0-0.99-0.439-0.99-0.979c0-0.546,0.444-0.99,0.99-0.99s0.989,0.444,0.989,0.99
			C102.123,130.538,101.679,130.978,101.133,130.978z"/>
		<path class="st53" d="M121.133,118.008c-1.098,0-1.99,0.893-1.99,1.99c0,1.092,0.893,1.979,1.99,1.979
			c1.097,0,1.989-0.888,1.989-1.979C123.123,118.9,122.23,118.008,121.133,118.008z M121.133,120.978
			c-0.546,0-0.99-0.439-0.99-0.979c0-0.546,0.444-0.99,0.99-0.99s0.989,0.444,0.989,0.99
			C122.123,120.538,121.679,120.978,121.133,120.978z"/>
		<path class="st53" d="M92.133,37.978c1.097,0,1.989-0.888,1.989-1.98c0-1.098-0.893-1.99-1.989-1.99
			c-1.098,0-1.99,0.893-1.99,1.99C90.143,37.09,91.036,37.978,92.133,37.978z M92.133,35.008c0.546,0,0.989,0.444,0.989,0.99
			c0,0.541-0.443,0.98-0.989,0.98s-0.99-0.439-0.99-0.98C91.143,35.452,91.588,35.008,92.133,35.008z"/>
		<path class="st53" d="M32.133,124.008c-1.098,0-1.99,0.893-1.99,1.99c0,1.092,0.893,1.979,1.99,1.979
			c1.097,0,1.989-0.888,1.989-1.979C34.123,124.9,33.23,124.008,32.133,124.008z M32.133,126.978c-0.546,0-0.99-0.439-0.99-0.979
			c0-0.546,0.444-0.99,0.99-0.99s0.989,0.444,0.989,0.99C33.123,126.538,32.679,126.978,32.133,126.978z"/>
		<path class="st53" d="M77.277,124.953c-3.882,1.277-7.957,1.925-12.114,1.925c-18.933,0-35.056-13.507-38.338-32.117
			c-0.048-0.271-0.312-0.459-0.579-0.405c-0.271,0.048-0.453,0.307-0.405,0.579c3.366,19.089,19.903,32.943,39.322,32.943
			c4.264,0,8.444-0.665,12.427-1.976c0.263-0.086,0.405-0.368,0.318-0.631S77.539,124.864,77.277,124.953z"/>
		<path class="st53" d="M86.922,55.662c0.086,0.058,0.184,0.086,0.28,0.086c0.16,0,0.317-0.077,0.414-0.22
			c0.155-0.229,0.095-0.54-0.134-0.694c-6.6-4.459-14.317-6.816-22.32-6.816c-3.881,0-7.703,0.548-11.361,1.63
			c-0.265,0.078-0.416,0.356-0.338,0.621c0.078,0.265,0.359,0.418,0.621,0.338c3.566-1.055,7.293-1.589,11.078-1.589
			C72.965,49.018,80.49,51.316,86.922,55.662z"/>
		<path class="st53" d="M109.524,91.103c-0.005-0.016-0.01-0.031-0.016-0.047c-0.117-0.297-0.252-0.578-0.386-0.859
			c0.007-0.029,0.02-0.056,0.021-0.088c0.029-0.717,0.05-1.434,0.05-2.16c0-24.284-19.752-44.041-44.03-44.041
			c-9.212,0-18.04,2.819-25.53,8.153c-0.01,0.007-0.015,0.018-0.024,0.026c-10.927,0.73-19.475,9.868-19.475,20.841
			c0,2.761,0.532,5.444,1.579,7.976c-0.017,0.038-0.037,0.074-0.043,0.117c-0.362,2.312-0.546,4.643-0.546,6.928
			c0,24.278,19.756,44.029,44.04,44.029c11.738,0,22.775-4.566,31.096-12.853c8.757-2.631,14.864-10.832,14.864-19.997
			c0-2.771-0.534-5.463-1.588-8.001C109.531,91.118,109.528,91.11,109.524,91.103z M39.754,53.077
			c0.023-0.001,0.073-0.012,0.116-0.023c0.021-0.001,0.046-0.004,0.076-0.007c0.704-0.035,1.396-0.048,2.148,0
			c0.551,0.02,1.098,0.068,1.634,0.146c9.916,1.272,17.394,9.799,17.394,19.834c0,3.641-0.988,7.207-2.858,10.312
			c-0.067,0.112-0.088,0.247-0.058,0.375l1.717,7.104l-7.561-1.076c-0.118-0.014-0.241,0.011-0.344,0.076
			c-2.662,1.739-5.741,2.818-8.903,3.12c-0.212,0.021-0.424,0.039-0.655,0.051c-0.203,0.017-0.397,0.026-0.649,0.038
			c-0.223,0.01-0.421,0.015-0.658,0.01c-8.027,0-15.245-4.787-18.391-12.197l-0.092-0.223c-0.001-0.004-0.003-0.007-0.005-0.011
			c-0.005-0.021-0.013-0.041-0.021-0.061c-1.003-2.418-1.512-4.981-1.512-7.619C21.133,62.453,29.313,53.734,39.754,53.077z
			 M22.123,87.948c0-1.777,0.119-3.583,0.344-5.386c3.567,7.016,10.749,11.475,18.687,11.475c0.237,0,0.464,0,0.764-0.014
			c0.207-0.01,0.413-0.02,0.61-0.037c0.228-0.011,0.455-0.031,0.684-0.052c3.26-0.312,6.436-1.409,9.196-3.176l8.105,1.153
			c0.162,0.02,0.328-0.036,0.44-0.159c0.111-0.122,0.155-0.292,0.116-0.453l-1.842-7.622c1.895-3.22,2.896-6.897,2.896-10.651
			c0-10.536-7.853-19.489-18.258-20.825c-0.564-0.082-1.147-0.134-1.721-0.154c-0.233-0.015-0.463-0.015-0.694-0.019
			c7.047-4.662,15.213-7.122,23.713-7.122c23.727,0,43.03,19.308,43.03,43.041c0,0.152-0.009,0.301-0.011,0.452
			c-3.245-5.559-8.832-9.326-15.251-10.187c-0.144-0.022-0.299-0.044-0.4-0.048c-0.189-0.034-0.39-0.057-0.583-0.067l-0.411-0.027
			c-0.208-0.022-0.426-0.033-0.677-0.035c-0.415-0.017-0.94-0.032-1.387-0.008c-0.152,0-0.304,0.01-0.42,0.02
			c-0.118,0-0.225,0.011-0.311,0.021c-0.255,0.011-0.511,0.031-0.731,0.062c-0.247,0.021-0.482,0.043-0.672,0.08
			c-0.243,0.021-0.475,0.055-0.672,0.102c-0.394,0.052-0.777,0.135-1.164,0.218c-0.275,0.062-0.552,0.133-0.827,0.205
			c-0.434,0.114-0.857,0.238-1.281,0.393c-0.023,0.006-0.045,0.012-0.06,0.017c-0.345,0.114-0.679,0.24-0.96,0.367
			c-0.155,0.048-0.311,0.107-0.429,0.167c-0.34,0.145-0.659,0.289-0.982,0.45c-0.339,0.165-0.688,0.34-1.012,0.521
			c-0.376,0.206-0.743,0.428-1.104,0.657l-8.105-1.164c-0.172-0.02-0.329,0.036-0.441,0.158c-0.111,0.123-0.154,0.293-0.116,0.454
			l1.833,7.619c-0.084,0.142-0.164,0.287-0.244,0.432l-0.346,0.65c-0.066,0.127-0.129,0.255-0.19,0.38l-0.101,0.205
			c-0.153,0.336-0.306,0.671-0.454,1.033l-0.18,0.479c-0.134,0.36-0.268,0.729-0.373,1.078c-0.068,0.196-0.128,0.4-0.2,0.652
			l-0.152,0.558c-0.072,0.278-0.133,0.565-0.195,0.863c-0.003,0.012-0.005,0.025-0.006,0.039c-0.07,0.32-0.129,0.65-0.177,0.978
			c-0.043,0.245-0.085,0.499-0.104,0.734c-0.062,0.494-0.112,0.986-0.133,1.471c-0.021,0.32-0.03,0.631-0.03,0.951v0.15
			c0,0.34,0.01,0.67,0.029,0.985c0.011,0.336,0.032,0.671,0.072,0.983c0.031,0.406,0.073,0.804,0.143,1.183
			c0.32,2.195,0.993,4.314,2.002,6.299c0.024,0.068,0.057,0.124,0.091,0.174c0.134,0.284,0.287,0.567,0.448,0.823
			c3.225,5.646,8.978,9.521,15.294,10.346c0.109,0.038,0.211,0.05,0.317,0.051c0.256,0.043,0.512,0.062,0.764,0.081
			c0.162,0.023,0.324,0.032,0.453,0.033c0.445,0.041,0.9,0.052,1.356,0.052h0.109c0.277,0,0.564-0.01,0.82-0.021
			c0.151,0,0.304-0.01,0.53-0.041c0.67-0.041,1.332-0.113,1.964-0.215c0.261-0.039,0.518-0.087,0.763-0.141
			c-7.971,7.334-18.24,11.356-29.127,11.356C41.43,130.978,22.123,111.675,22.123,87.948z M95.843,118.211
			c-0.485,0.152-0.991,0.278-1.531,0.382c-0.306,0.076-0.62,0.133-0.938,0.181c-0.604,0.097-1.234,0.166-1.956,0.226
			c-0.128,0.009-0.257,0.019-0.404,0.019c-0.264,0.011-0.537,0.021-0.801,0.021h-0.109c-0.425,0-0.849-0.009-1.311-0.05
			c-0.125,0-0.243-0.009-0.419-0.031c-0.243-0.019-0.486-0.036-0.729-0.08c-0.029-0.006-0.042-0.009-0.056-0.009
			c-0.012,0-0.025,0.003-0.052,0.007c-0.022-0.006-0.076-0.021-0.099-0.023c-6.104-0.805-11.58-4.495-14.662-9.891
			c-0.158-0.251-0.299-0.513-0.447-0.791c-0.009-0.038-0.022-0.074-0.04-0.109c-0.969-1.896-1.615-3.924-1.924-6.043
			c-0.066-0.363-0.104-0.726-0.136-1.122c-0.038-0.305-0.058-0.608-0.067-0.928c-0.019-0.311-0.028-0.621-0.028-0.939v-0.15
			c0-0.299,0.01-0.59,0.029-0.898c0.02-0.467,0.068-0.934,0.128-1.419c0.02-0.225,0.058-0.451,0.098-0.681
			c0.048-0.327,0.105-0.646,0.173-0.954c0.003-0.014,0.006-0.03,0.008-0.046c0.057-0.271,0.112-0.533,0.178-0.785l0.158-0.581
			c0.055-0.187,0.107-0.372,0.177-0.57c0.106-0.352,0.234-0.701,0.36-1.041l0.174-0.464c0.137-0.334,0.285-0.659,0.425-0.967
			l0.097-0.196c0.058-0.116,0.116-0.236,0.217-0.434l0.296-0.553c0.105-0.191,0.211-0.383,0.325-0.563
			c0.073-0.114,0.096-0.253,0.064-0.385l-1.709-7.104l7.561,1.086c0.12,0.016,0.241-0.01,0.344-0.075
			c0.39-0.254,0.789-0.497,1.203-0.724c0.312-0.176,0.643-0.341,0.97-0.499c0.31-0.156,0.611-0.291,0.957-0.439
			c0.097-0.048,0.201-0.088,0.359-0.14c0.296-0.13,0.591-0.241,0.936-0.358c0.025-0.005,0.05-0.012,0.074-0.021
			c0.396-0.144,0.791-0.26,1.195-0.366c0.265-0.068,0.529-0.137,0.789-0.195c0.357-0.077,0.714-0.154,1.125-0.211
			c0.197-0.044,0.386-0.071,0.63-0.095c0.204-0.037,0.408-0.056,0.646-0.076c0.215-0.028,0.439-0.047,0.7-0.059
			c0.08-0.009,0.153-0.018,0.27-0.019c0.128-0.009,0.256-0.019,0.41-0.02c0.193-0.01,0.387-0.01,0.624-0.01
			c0.205,0.003,0.461,0.008,0.78,0.021c0.173,0,0.354,0.009,0.545,0.029l0.438,0.029c0.16,0.009,0.319,0.027,0.522,0.061
			c0.125,0.009,0.251,0.026,0.379,0.046c6.663,0.895,12.384,5.06,15.309,11.148c0.174,0.348,0.338,0.703,0.481,1.069
			c0.005,0.012,0.01,0.022,0.015,0.033c0.006,0.019,0.012,0.037,0.02,0.056c1.003,2.417,1.512,4.979,1.512,7.618
			C110.123,107.897,104.254,115.742,95.843,118.211z"/>
		<path class="st53" d="M81.203,95.948c-0.393,0-0.775,0.076-1.14,0.227c-1.124,0.458-1.851,1.542-1.851,2.763
			s0.727,2.306,1.85,2.764c0.367,0.15,0.751,0.227,1.141,0.227c1.648,0,2.99-1.342,2.99-2.99S82.851,95.948,81.203,95.948z
			 M81.203,100.928c-0.259,0-0.515-0.051-0.762-0.152c-0.734-0.3-1.229-1.038-1.229-1.838c0-0.812,0.482-1.533,1.229-1.837
			c0.001,0,0.002-0.001,0.003-0.001c0.242-0.101,0.498-0.151,0.759-0.151c1.098,0,1.99,0.893,1.99,1.989
			C83.193,100.035,82.3,100.928,81.203,100.928z"/>
		<path class="st53" d="M90.203,95.948c-1.648,0-2.99,1.341-2.99,2.989s1.342,2.99,2.99,2.99s2.99-1.342,2.99-2.99
			S91.851,95.948,90.203,95.948z M90.203,100.928c-1.098,0-1.99-0.893-1.99-1.99c0-1.097,0.893-1.989,1.99-1.989
			s1.99,0.893,1.99,1.989C92.193,100.035,91.3,100.928,90.203,100.928z"/>
		<path class="st53" d="M99.203,95.948c-1.648,0-2.99,1.341-2.99,2.989s1.342,2.99,2.99,2.99s2.99-1.342,2.99-2.99
			S100.851,95.948,99.203,95.948z M99.203,100.928c-1.098,0-1.99-0.893-1.99-1.99c0-1.097,0.893-1.989,1.99-1.989
			s1.99,0.893,1.99,1.989C101.193,100.035,100.3,100.928,99.203,100.928z"/>
		<path class="st53" d="M31.066,75.708c0.342,0.146,0.714,0.22,1.106,0.22c1.648,0,2.99-1.341,2.99-2.99
			c0-1.649-1.342-2.99-2.99-2.99c-0.396,0-0.77,0.073-1.109,0.217c-1.143,0.45-1.88,1.538-1.88,2.773
			C29.183,74.153,29.946,75.269,31.066,75.708z M31.435,71.094c0.005-0.002,0.01-0.004,0.015-0.006
			c0.216-0.093,0.459-0.14,0.723-0.14c1.098,0,1.99,0.893,1.99,1.99c0,1.097-0.893,1.99-1.99,1.99c-0.253,0-0.5-0.048-0.727-0.145
			c-0.755-0.296-1.263-1.037-1.263-1.845C30.183,72.128,30.686,71.386,31.435,71.094z"/>
		<path class="st53" d="M41.172,75.928c1.648,0,2.99-1.341,2.99-2.99c0-1.649-1.342-2.99-2.99-2.99s-2.989,1.341-2.989,2.99
			C38.183,74.587,39.524,75.928,41.172,75.928z M41.172,70.948c1.098,0,1.99,0.893,1.99,1.99c0,1.097-0.893,1.99-1.99,1.99
			c-1.097,0-1.989-0.893-1.989-1.99C39.183,71.84,40.076,70.948,41.172,70.948z"/>
		<path class="st53" d="M50.172,75.928c1.648,0,2.99-1.341,2.99-2.99c0-1.649-1.342-2.99-2.99-2.99s-2.989,1.341-2.989,2.99
			C47.183,74.587,48.524,75.928,50.172,75.928z M50.172,70.948c1.098,0,1.99,0.893,1.99,1.99c0,1.097-0.893,1.99-1.99,1.99
			c-1.097,0-1.989-0.893-1.989-1.99C48.183,71.84,49.076,70.948,50.172,70.948z"/>
	</g>
</g>
</svg>
